name Walk1.mot
datacolumns 19
datarows 10
range 2.27800000 2.28700000
endheader

                time	   L_ground_force_vx	   L_ground_force_vy	   L_ground_force_vz	   L_ground_force_px	   L_ground_force_py	   L_ground_force_pz	   R_ground_force_vx	   R_ground_force_vy	   R_ground_force_vz	   R_ground_force_px	   R_ground_force_py	   R_ground_force_pz	   L_ground_torque_x	   L_ground_torque_y	   L_ground_torque_z	   R_ground_torque_x	   R_ground_torque_y	   R_ground_torque_z	
          2.27800000	        -24.09646019	        702.95436433	        -41.61494909	          0.16135680	          0.00000000	          0.09016797	          0.00000000	          0.00000000	          0.00000000	          0.00000000	          0.00000000	          0.00000000	          0.00000000	          7.47447204	          0.00000000	          0.00000000	          0.00000000	          0.00000000	
          2.27900000	        -23.63143213	        701.70000216	        -41.53818829	          0.16164175	          0.00000000	          0.09021743	          0.00000000	          0.00000000	          0.00000000	          0.00000000	          0.00000000	          0.00000000	          0.00000000	          7.41968793	          0.00000000	          0.00000000	          0.00000000	          0.00000000	
          2.28000000	        -23.18633378	        700.52417206	        -41.44382832	          0.16194270	          0.00000000	          0.09028338	          0.00000000	          0.00000000	          0.00000000	          0.00000000	          0.00000000	          0.00000000	          0.00000000	          7.36021858	          0.00000000	          0.00000000	          0.00000000	          0.00000000	
          2.28100000	        -22.75104252	        699.38316058	        -41.34138637	          0.16227365	          0.00000000	          0.09032796	          0.00000000	          0.00000000	          0.00000000	          0.00000000	          0.00000000	          0.00000000	          0.00000000	          7.30299579	          0.00000000	          0.00000000	          0.00000000	          0.00000000	
          2.28200000	        -22.30568197	        698.21853974	        -41.24049332	          0.16262506	          0.00000000	          0.09032962	          0.00000000	          0.00000000	          0.00000000	          0.00000000	          0.00000000	          0.00000000	          0.00000000	          7.25066293	          0.00000000	          0.00000000	          0.00000000	          0.00000000	
          2.28300000	        -21.83515779	        697.01191598	        -41.14297381	          0.16299704	          0.00000000	          0.09029414	          0.00000000	          0.00000000	          0.00000000	          0.00000000	          0.00000000	          0.00000000	          0.00000000	          7.19856676	          0.00000000	          0.00000000	          0.00000000	          0.00000000	
          2.28400000	        -21.34093406	        695.78715114	        -41.04448257	          0.16339936	          0.00000000	          0.09024834	          0.00000000	          0.00000000	          0.00000000	          0.00000000	          0.00000000	          0.00000000	          0.00000000	          7.14093418	          0.00000000	          0.00000000	          0.00000000	          0.00000000	
          2.28500000	        -20.84207591	        694.59186552	        -40.94751592	          0.16383789	          0.00000000	          0.09022826	          0.00000000	          0.00000000	          0.00000000	          0.00000000	          0.00000000	          0.00000000	          0.00000000	          7.07717608	          0.00000000	          0.00000000	          0.00000000	          0.00000000	
          2.28600000	        -20.36246609	        693.48701866	        -40.86302231	          0.16431959	          0.00000000	          0.09026408	          0.00000000	          0.00000000	          0.00000000	          0.00000000	          0.00000000	          0.00000000	          0.00000000	          7.01261836	          0.00000000	          0.00000000	          0.00000000	          0.00000000	
          2.28700000	        -19.91475766	        692.51529819	        -40.80002968	          0.16485362	          0.00000000	          0.09036005	          0.00000000	          0.00000000	          0.00000000	          0.00000000	          0.00000000	          0.00000000	          0.00000000	          6.95435691	          0.00000000	          0.00000000	          0.00000000	          0.00000000	
